<?xml version="1.0" encoding="utf-8"?>
<!-- Generator: Adobe Illustrator 16.0.4, SVG Export Plug-In . SVG Version: 6.00 Build 0)  -->
<!DOCTYPE svg PUBLIC "-//W3C//DTD SVG 1.1//EN" "http://www.w3.org/Graphics/SVG/1.1/DTD/svg11.dtd">
<svg version="1.1" id="Layer_1" xmlns="http://www.w3.org/2000/svg" xmlns:xlink="http://www.w3.org/1999/xlink" x="0px" y="0px"
	 width="348.742px" height="111.973px" viewBox="0 0 348.742 111.973" enable-background="new 0 0 348.742 111.973"
	 xml:space="preserve">
<rect x="252.736" y="9.041" fill="#FFFFFF" stroke="#000000" stroke-width="2" stroke-miterlimit="10" width="92.16" height="92.159"/>
<g>
	<path d="M302.732,49.17c0,5.635-1.27,9.906-3.803,12.814c-2.533,2.906-6.618,4.36-12.258,4.36h-9.883v-34.35h9.458
		c5.592,0,9.736,1.469,12.438,4.404C301.382,39.338,302.732,43.594,302.732,49.17z M295.195,49.17c0-3.801-0.702-6.626-2.106-8.476
		c-1.401-1.849-3.645-2.772-6.722-2.772h-1.973v22.499h2.421c2.973,0,5.11-0.932,6.419-2.784
		C294.542,55.777,295.195,52.957,295.195,49.17z"/>
	<path d="M325.34,58.093c0,2.624-0.938,4.73-2.814,6.328c-1.878,1.596-4.203,2.393-6.979,2.393c-1.297,0-2.851-0.13-4.661-0.391
		c-1.812-0.264-3.419-0.767-4.817-1.513v-6.035c1.104,0.626,2.354,1.166,3.757,1.618c1.4,0.455,3.025,0.685,4.876,0.685
		c1.325,0,2.396-0.192,3.208-0.58s1.219-1.088,1.219-2.103c0-0.655-0.343-1.189-1.026-1.599c-0.688-0.41-1.881-0.689-3.577-0.84
		c-3.041-0.252-5.176-0.99-6.396-2.213c-1.225-1.222-1.835-2.862-1.835-4.919c0-2.326,0.938-4.241,2.81-5.747
		c1.867-1.506,4.171-2.259,6.896-2.259c1.192,0,2.467,0.104,3.824,0.312c1.354,0.209,2.511,0.471,3.466,0.783v6.105
		c-1.192-0.537-2.383-0.933-3.565-1.186c-1.187-0.254-2.466-0.38-3.836-0.38c-1.104,0-1.965,0.19-2.584,0.57
		c-0.615,0.38-0.928,0.824-0.928,1.331c0,0.908,0.439,1.51,1.319,1.8s1.804,0.466,2.771,0.524c2.951,0.194,5.169,0.925,6.653,2.191
		C324.6,54.238,325.34,55.945,325.34,58.093z"/>
</g>
<g>
	<path d="M285.416,75.878c0,1.925-0.433,3.383-1.298,4.375c-0.865,0.989-2.26,1.486-4.185,1.486h-3.374V70.014h3.229
		c1.909,0,3.324,0.502,4.245,1.505C284.955,72.521,285.416,73.975,285.416,75.878z M282.843,75.878c0-1.3-0.236-2.265-0.719-2.896
		c-0.479-0.632-1.244-0.947-2.296-0.947h-0.674v7.684h0.828c1.015,0,1.745-0.316,2.188-0.95
		C282.619,78.135,282.843,77.172,282.843,75.878z"/>
	<path d="M294.913,77.986h-6.1c0.127,0.666,0.39,1.147,0.789,1.442c0.396,0.295,0.885,0.439,1.455,0.439
		c0.458,0,0.965-0.064,1.52-0.199c0.555-0.137,0.993-0.312,1.312-0.53v2.065c-0.299,0.217-0.751,0.387-1.354,0.511
		c-0.604,0.125-1.088,0.188-1.454,0.188c-1.451,0-2.583-0.396-3.396-1.187c-0.814-0.792-1.226-1.854-1.226-3.184
		c0-1.338,0.416-2.419,1.249-3.237c0.833-0.822,1.871-1.234,3.118-1.234s2.242,0.438,2.981,1.318
		C294.55,75.256,294.918,76.459,294.913,77.986z M292.761,76.878c-0.113-0.61-0.353-1.07-0.704-1.384
		c-0.354-0.311-0.795-0.467-1.315-0.467c-0.612,0-1.072,0.169-1.383,0.505c-0.312,0.336-0.498,0.784-0.565,1.346H292.761
		L292.761,76.878z"/>
	<path d="M302.372,78.925c0,0.896-0.319,1.616-0.962,2.16c-0.642,0.545-1.435,0.814-2.383,0.814c-0.441,0-0.973-0.045-1.592-0.134
		c-0.618-0.089-1.167-0.261-1.646-0.515v-2.062c0.378,0.214,0.804,0.397,1.282,0.554c0.479,0.155,1.033,0.232,1.665,0.232
		c0.453,0,0.816-0.065,1.096-0.198c0.277-0.134,0.416-0.372,0.416-0.719c0-0.224-0.117-0.405-0.352-0.545
		c-0.233-0.144-0.645-0.235-1.225-0.286c-1.038-0.087-1.766-0.339-2.184-0.756c-0.416-0.418-0.626-0.979-0.626-1.683
		c0-0.794,0.32-1.445,0.959-1.962c0.639-0.515,1.424-0.771,2.354-0.771c0.404,0,0.842,0.036,1.305,0.104
		c0.464,0.072,0.855,0.16,1.185,0.271v2.084c-0.406-0.186-0.812-0.318-1.218-0.404s-0.841-0.13-1.309-0.13
		c-0.379,0-0.672,0.065-0.886,0.194c-0.211,0.13-0.313,0.278-0.313,0.454c0,0.312,0.147,0.516,0.45,0.612
		c0.301,0.102,0.613,0.159,0.944,0.183c1.008,0.062,1.768,0.312,2.271,0.748C302.119,77.608,302.372,78.192,302.372,78.925z"/>
	<path d="M306.113,72.511h-2.367V70.32h2.367V72.511z M306.113,81.742h-2.367v-8.208l2.367-0.137V81.742z"/>
	<path d="M315.405,80.709c0,0.515-0.099,0.977-0.295,1.388c-0.195,0.409-0.453,0.759-0.772,1.05
		c-0.312,0.285-0.663,0.52-1.045,0.699c-0.381,0.181-0.744,0.312-1.09,0.393l-2.036-0.008v-1.328c1.16,0,1.942-0.109,2.344-0.336
		c0.403-0.225,0.604-0.603,0.604-1.137v-0.58l-0.817,0.549c-0.149,0.104-0.331,0.173-0.532,0.213
		c-0.202,0.042-0.395,0.062-0.563,0.062c-1.15,0-2.042-0.39-2.672-1.158c-0.632-0.771-0.948-1.822-0.948-3.152
		c0-1.234,0.37-2.256,1.108-3.053c0.734-0.797,1.667-1.196,2.786-1.196c0.363,0,0.737,0.062,1.119,0.188
		c0.386,0.122,0.73,0.312,1.049,0.58l1.28-0.489l0.481,0.145L315.405,80.709L315.405,80.709z M313.183,79.047v-3.291
		c-0.135-0.21-0.306-0.379-0.515-0.505c-0.209-0.128-0.493-0.189-0.854-0.189c-0.68,0-1.16,0.212-1.451,0.636
		c-0.289,0.424-0.438,0.914-0.438,1.474c0,0.737,0.15,1.349,0.45,1.82c0.302,0.479,0.757,0.713,1.367,0.713
		c0.312,0,0.592-0.059,0.847-0.176C312.85,79.411,313.046,79.251,313.183,79.047z"/>
	<path d="M324.964,81.742h-2.338v-5.15c0-0.304-0.104-0.566-0.319-0.798c-0.214-0.232-0.543-0.351-0.981-0.351
		c-0.423,0-0.777,0.088-1.062,0.267c-0.285,0.176-0.513,0.34-0.682,0.489v5.543h-2.336v-8.208l2.336-0.167v0.804l0.971-0.56
		c0.291-0.168,0.592-0.289,0.895-0.363c0.303-0.07,0.604-0.107,0.906-0.107c0.81,0,1.445,0.251,1.914,0.753
		c0.467,0.5,0.698,1.161,0.698,1.979L324.964,81.742L324.964,81.742z"/>
</g>
<g>
	<path d="M284.732,17.641l-5.265,11.595h-2.135l4.831-10.185h-5.468V16.82h8.033L284.732,17.641L284.732,17.641z"/>
	<path d="M294.846,17.641l-5.262,11.595h-2.135l4.83-10.185h-5.467V16.82h8.03L294.846,17.641L294.846,17.641z"/>
</g>
<rect x="-2.846" y="-2.999" fill="none" width="251.715" height="111.972"/>
<g id="Layer_2">
	<path fill="none" stroke="#FFFFFF" stroke-width="3.5086" stroke-miterlimit="10" d="M136.057,47.706"/>
	<path fill="none" stroke="#FFFFFF" stroke-width="3.5086" stroke-miterlimit="10" d="M136.057,11.106"/>
	<rect x="49.667" y="9.46" width="14.062" height="44.126"/>
	<g>
		<polygon points="26.867,24.318 19.476,24.318 19.476,9.46 5.442,9.46 5.442,53.587 19.476,53.587 19.476,36.411 26.867,36.411 		
			"/>
		<polygon points="31.328,9.46 31.328,24.318 31.325,24.291 31.325,36.374 31.328,36.411 31.328,53.587 45.416,53.587 45.416,9.46 
					"/>
	</g>
	<g>
		<path d="M90.367,19.886c0.916,0.171,1.723,0.479,2.38,0.956c1.033,0.748,1.75,1.811,2.19,3.249l0.22,0.711l13.543-2.564
			l-0.229-0.863c-0.756-2.845-1.906-5.233-3.422-7.104c-1.533-1.891-3.486-3.306-5.807-4.206c-2.076-0.804-4.994-1.233-8.875-1.313
			V19.886z"/>
		<path d="M90.367,27.708v10.498h6.172v2.703c-1.4,0.857-2.66,1.479-3.749,1.846c-0.774,0.263-1.588,0.431-2.424,0.519V54.25
			c3.157-0.136,5.991-0.598,8.405-1.417c2.88-0.979,6.22-2.834,9.927-5.517l0.345-0.249V27.709L90.367,27.708L90.367,27.708z"/>
		<path d="M86.367,42.982c-1.379-0.411-2.518-1.168-3.441-2.286c-1.494-1.807-2.252-4.941-2.252-9.317
			c0-4.11,0.75-7.126,2.231-8.964c0.951-1.18,2.098-1.957,3.462-2.359V8.828c-3.494,0.227-6.412,0.909-8.68,2.057
			c-3.616,1.848-6.4,4.593-8.275,8.159c-1.857,3.533-2.799,7.73-2.799,12.479c0,4.511,0.859,8.569,2.555,12.064
			c1.713,3.535,4.168,6.238,7.297,8.034c2.642,1.517,5.971,2.391,9.902,2.621V42.982z"/>
	</g>
	<g>
		<polygon points="137.869,9.444 137.869,24.303 137.852,24.286 137.867,36.394 137.869,36.394 137.869,53.57 151.958,53.57 
			151.958,9.444 		"/>
		<polygon points="134.367,24.318 126.018,24.318 126.018,9.46 111.984,9.46 111.984,53.587 126.018,53.587 126.018,36.411 
			134.367,36.411 		"/>
	</g>
	<g>
		<path d="M23.617,89.498c-1.486-0.324-2.704-1.087-3.683-2.308c-1.374-1.713-2.07-4.646-2.07-8.72c0-4.11,0.7-7.062,2.082-8.774
			c0.996-1.232,2.208-2,3.67-2.318V55.665c-5.897,0.325-10.643,2.321-14.098,5.987C5.744,65.654,3.83,71.297,3.83,78.414
			c0,5.082,0.963,9.393,2.863,12.804c1.911,3.433,4.448,5.979,7.54,7.575c2.562,1.319,5.715,2.091,9.382,2.31V89.498H23.617z"/>
		<path d="M41.337,61.548c-3.276-3.449-7.8-5.412-13.47-5.854v11.896c1.17,0.391,2.159,1.071,2.982,2.07
			c1.387,1.686,2.09,4.452,2.09,8.232c0,4.535-0.674,7.685-2.004,9.359c-0.816,1.025-1.831,1.725-3.068,2.102v11.746
			c3.695-0.241,6.891-1.14,9.51-2.695c3.102-1.841,5.508-4.452,7.146-7.761c1.625-3.277,2.449-7.509,2.449-12.577
			C46.973,71.041,45.076,65.483,41.337,61.548z"/>
	</g>
	<g>
		<path d="M65.867,89.128c-0.873-0.384-1.614-0.966-2.23-1.767c-1.227-1.586-1.848-4.671-1.848-9.168
			c0-3.621,0.525-6.284,1.566-7.92c0.689-1.104,1.523-1.914,2.512-2.444v-12.08c-5.271,0.514-9.521,2.438-12.631,5.77
			c-3.655,3.915-5.508,9.555-5.508,16.763c0,5.396,1.05,9.901,3.121,13.396c2.076,3.504,4.598,5.993,7.492,7.397
			c2.073,1.011,4.6,1.65,7.526,1.934L65.867,89.128L65.867,89.128z"/>
		<path d="M75.844,82.07c-0.516,2.532-1.34,4.475-2.451,5.768c-0.797,0.928-1.877,1.491-3.275,1.717v11.604
			c3.359-0.072,6.21-0.646,8.467-1.717c2.438-1.157,4.506-2.893,6.147-5.159c1.625-2.245,2.829-5.063,3.577-8.385l0.168-0.743
			l-12.449-3.992L75.844,82.07z"/>
	</g>
	<g>
		<rect x="99.68" y="73.144" width="14.033" height="27.303"/>
		<path d="M87.064,56.321v10.753c-1.43-3.485-3.396-6.203-5.881-8.063c-2.756-2.066-6.481-3.192-11.066-3.374v11.526
			c0.695,0.104,1.348,0.311,1.939,0.626c0.879,0.479,1.637,1.169,2.254,2.064c0.365,0.521,0.729,1.395,1.086,2.597l0.223,0.754
			l12.557-2.964l-0.267-0.853c-0.099-0.315-0.211-0.613-0.317-0.918H99.68l0.104,0.007h13.958l-0.028-0.007h12.614V56.32
			L87.064,56.321L87.064,56.321z"/>
	</g>
	<g>
		<rect x="225.367" y="56.321" width="17.578" height="10.729"/>
		<rect x="225.367" y="72.136" width="16.076" height="10.324"/>
		<rect x="208.133" y="56.321" width="12.984" height="44.126"/>
		<rect x="225.367" y="89.168" width="18.18" height="11.276"/>
	</g>
	<polygon points="139.803,77.1 134.736,56.916 119.311,100.447 133.364,100.447 	"/>
	<g>
		<polygon points="204.4,91.103 204.4,56.321 191.078,56.321 191.078,70.493 		"/>
		<polygon points="191.078,77.784 191.078,77.808 188.998,74.566 182.85,65.054 182.883,65.034 177.292,56.321 164.454,56.321 
			164.454,57.73 179.346,81.612 191.456,100.447 204.4,100.447 204.4,98.394 		"/>
		<polygon points="164.454,65.291 164.454,98.214 149.614,56.321 138.66,56.321 144.04,77.755 145.44,82.592 142.41,82.592 
			139.419,93.438 148.485,93.438 150.488,100.447 164.454,100.447 165.245,100.447 177.751,100.447 177.751,86.616 		"/>
	</g>
</g>
<g id="Layer_3" display="none">
	
		<line display="inline" fill="none" stroke="#FFFFFF" stroke-width="4.1233" stroke-miterlimit="10" x1="162.117" y1="258.461" x2="162.117" y2="295.061"/>
	
		<line display="inline" fill="none" stroke="#FFFFFF" stroke-width="4" stroke-miterlimit="10" x1="221.372" y1="247.877" x2="221.372" y2="302.476"/>
	
		<line display="inline" fill="none" stroke="#FFFFFF" stroke-width="3.4342" stroke-miterlimit="10" x1="269.04" y1="258.961" x2="269.04" y2="295.56"/>
	
		<line display="inline" fill="none" stroke="#FFFFFF" stroke-width="4" stroke-miterlimit="10" x1="158.808" y1="300.342" x2="158.808" y2="354.94"/>
	
		<line display="inline" fill="none" stroke="#FFFFFF" stroke-width="4" stroke-miterlimit="10" x1="201.062" y1="300.342" x2="201.062" y2="354.939"/>
	
		<line display="inline" fill="none" stroke="#FFFFFF" stroke-width="4.733" stroke-miterlimit="10" x1="225.413" y1="318.174" x2="251.668" y2="318.174"/>
	
		<line display="inline" fill="none" stroke="#FFFFFF" stroke-width="4" stroke-miterlimit="10" x1="356.512" y1="300.342" x2="356.512" y2="354.939"/>
</g>
<text transform="matrix(0.9629 0 0 1 276.7891 94.5837)" font-family="'Arial-BoldMT'" font-size="14.0704">211.8</text>
</svg>
