<?xml version="1.0" encoding="utf-8"?>
<!-- Generator: Adobe Illustrator 16.0.0, SVG Export Plug-In . SVG Version: 6.00 Build 0)  -->
<!DOCTYPE svg PUBLIC "-//W3C//DTD SVG 1.1//EN" "http://www.w3.org/Graphics/SVG/1.1/DTD/svg11.dtd">
<svg version="1.1" id="Layer_1" xmlns="http://www.w3.org/2000/svg" xmlns:xlink="http://www.w3.org/1999/xlink" x="0px" y="0px"
	 width="565.613px" height="102.127px" viewBox="-217.386 0 565.613 102.127" enable-background="new -217.386 0 565.613 102.127"
	 xml:space="preserve">
<rect x="251.74" y="5.949" fill="#FFFFFF" stroke="#000000" stroke-width="2" stroke-miterlimit="10" width="92.158" height="92.159"/>
<g>
	<path d="M297.935,51.518c0,6.583-1.479,11.573-4.439,14.969c-2.961,3.396-7.732,5.094-14.316,5.094h-11.545V31.456h11.049
		c6.531,0,11.373,1.715,14.525,5.146C296.357,40.033,297.935,45.005,297.935,51.518z M289.13,51.518c0-4.44-0.82-7.741-2.461-9.9
		c-1.643-2.159-4.258-3.239-7.854-3.239h-2.305v26.28h2.828c3.473,0,5.973-1.085,7.498-3.253
		C288.367,59.237,289.13,55.94,289.13,51.518z"/>
	<path d="M324.343,61.94c0,3.064-1.096,5.528-3.291,7.394c-2.193,1.864-4.91,2.795-8.15,2.795c-1.516,0-3.328-0.151-5.443-0.457
		c-2.117-0.304-3.994-0.892-5.631-1.763v-7.055c1.289,0.73,2.752,1.361,4.389,1.895s3.535,0.797,5.695,0.797
		c1.549,0,2.799-0.227,3.748-0.679c0.947-0.452,1.424-1.271,1.424-2.456c0-0.766-0.4-1.389-1.201-1.867s-2.195-0.807-4.18-0.98
		c-3.555-0.295-6.043-1.155-7.473-2.586c-1.43-1.427-2.143-3.343-2.143-5.747c0-2.717,1.092-4.955,3.279-6.713
		c2.184-1.759,4.869-2.639,8.059-2.639c1.393,0,2.881,0.122,4.467,0.366c1.584,0.244,2.936,0.549,4.049,0.915v7.131
		c-1.395-0.627-2.781-1.088-4.166-1.384c-1.385-0.296-2.879-0.444-4.479-0.444c-1.289,0-2.295,0.222-3.02,0.666
		c-0.723,0.444-1.084,0.962-1.084,1.554c0,1.062,0.516,1.764,1.541,2.103c1.027,0.34,2.107,0.544,3.24,0.613
		c3.447,0.228,6.037,1.08,7.771,2.561C323.478,57.438,324.343,59.433,324.343,61.94z"/>
</g>
<g>
	<path d="M277.707,82.717c0,2.248-0.506,3.951-1.518,5.11c-1.012,1.158-2.641,1.738-4.889,1.738h-3.941V75.868h3.771
		c2.229,0,3.883,0.586,4.959,1.758C277.167,78.796,277.707,80.495,277.707,82.717z M274.701,82.717c0-1.516-0.279-2.643-0.842-3.38
		c-0.561-0.736-1.451-1.105-2.682-1.105h-0.787v8.974h0.967c1.188,0,2.039-0.37,2.562-1.11
		C274.439,85.353,274.701,84.228,274.701,82.717z"/>
	<path d="M288.8,85.179h-7.125c0.148,0.778,0.455,1.342,0.922,1.688c0.467,0.345,1.033,0.517,1.699,0.517
		c0.535,0,1.127-0.077,1.773-0.235c0.648-0.155,1.16-0.362,1.533-0.619v2.416c-0.35,0.25-0.877,0.449-1.582,0.595
		s-1.271,0.219-1.699,0.219c-1.693,0-3.018-0.463-3.969-1.387c-0.951-0.925-1.428-2.163-1.428-3.716
		c0-1.562,0.486-2.825,1.459-3.784c0.973-0.961,2.186-1.44,3.643-1.44s2.619,0.514,3.482,1.538
		C288.376,81.991,288.806,83.396,288.8,85.179z M286.287,83.885c-0.139-0.713-0.412-1.251-0.826-1.612
		c-0.412-0.362-0.926-0.545-1.537-0.545c-0.715,0-1.252,0.196-1.615,0.59c-0.363,0.393-0.582,0.914-0.66,1.567H286.287z"/>
	<path d="M297.513,86.276c0,1.047-0.373,1.888-1.123,2.521c-0.75,0.639-1.676,0.955-2.783,0.955c-0.516,0-1.137-0.053-1.857-0.154
		c-0.724-0.104-1.363-0.307-1.922-0.604v-2.408c0.439,0.25,0.938,0.467,1.498,0.646c0.561,0.183,1.207,0.271,1.943,0.271
		c0.529,0,0.955-0.075,1.279-0.229c0.324-0.155,0.486-0.437,0.486-0.84c0-0.263-0.139-0.475-0.41-0.638
		c-0.273-0.164-0.75-0.274-1.43-0.335c-1.213-0.102-2.062-0.396-2.551-0.883c-0.484-0.487-0.729-1.143-0.729-1.962
		c0-0.929,0.373-1.691,1.119-2.292c0.744-0.602,1.662-0.901,2.752-0.901c0.475,0,0.98,0.042,1.521,0.125
		c0.541,0.084,1.002,0.188,1.383,0.312v2.436c-0.475-0.214-0.947-0.372-1.422-0.473c-0.473-0.102-0.98-0.151-1.527-0.151
		c-0.439,0-0.783,0.076-1.031,0.228c-0.246,0.151-0.369,0.33-0.369,0.531c0,0.362,0.176,0.603,0.525,0.719
		c0.352,0.115,0.721,0.187,1.105,0.209c1.176,0.078,2.062,0.369,2.652,0.875C297.216,84.737,297.513,85.42,297.513,86.276z"/>
	<path d="M301.884,78.785h-2.766v-2.56h2.766V78.785z M301.884,89.567h-2.766v-9.588l2.766-0.16V89.567z"/>
	<path d="M312.738,88.36c0,0.602-0.113,1.142-0.344,1.621c-0.229,0.479-0.527,0.887-0.9,1.227c-0.369,0.333-0.775,0.605-1.223,0.816
		c-0.444,0.211-0.869,0.363-1.271,0.459l-2.379-0.01v-1.553c1.354,0,2.27-0.131,2.736-0.395c0.473-0.262,0.705-0.702,0.705-1.326
		v-0.68l-0.955,0.644c-0.178,0.119-0.387,0.202-0.623,0.249c-0.236,0.049-0.459,0.07-0.658,0.07c-1.346,0-2.387-0.449-3.121-1.353
		c-0.738-0.901-1.107-2.129-1.107-3.683c0-1.445,0.433-2.635,1.295-3.565c0.861-0.931,1.947-1.397,3.254-1.397
		c0.43,0,0.865,0.072,1.312,0.217s0.854,0.367,1.223,0.678l1.498-0.57l0.562,0.17v8.381H312.738z M310.142,86.418v-3.844
		c-0.154-0.246-0.354-0.443-0.598-0.591c-0.244-0.148-0.576-0.221-0.998-0.221c-0.791,0-1.355,0.245-1.695,0.741
		c-0.338,0.494-0.508,1.065-0.508,1.72c0,0.862,0.176,1.573,0.525,2.129c0.352,0.556,0.883,0.832,1.598,0.832
		c0.361,0,0.691-0.067,0.988-0.205C309.753,86.844,309.982,86.657,310.142,86.418z"/>
	<path d="M323.904,89.567h-2.729v-6.021c0-0.354-0.125-0.662-0.373-0.932c-0.25-0.271-0.635-0.406-1.15-0.406
		c-0.492,0-0.906,0.104-1.238,0.309c-0.334,0.205-0.6,0.396-0.795,0.574v6.477h-2.729v-9.588l2.729-0.195v0.936l1.135-0.65
		c0.34-0.194,0.688-0.338,1.041-0.424c0.353-0.086,0.707-0.129,1.059-0.129c0.945,0,1.691,0.293,2.236,0.879
		s0.816,1.356,0.816,2.313L323.904,89.567L323.904,89.567z"/>
</g>
<g>
	<path d="M276.908,14.688l-6.146,13.545h-2.493l5.645-11.897h-6.389V13.73h9.386L276.908,14.688L276.908,14.688z"/>
	<path d="M288.721,14.688l-6.146,13.545h-2.493l5.643-11.897h-6.387V13.73h9.384L288.721,14.688L288.721,14.688z"/>
</g>
<rect x="-3.842" y="-6.09" fill="none" width="251.715" height="111.972"/>
<g id="Layer_2">
	<rect x="48.67" y="6.369" fill="#FFFFFF" width="14.061" height="44.126"/>
	<g>
		<polygon fill="#FFFFFF" points="25.871,21.228 18.479,21.228 18.479,6.369 4.446,6.369 4.446,50.495 18.479,50.495 18.479,33.319 
			25.871,33.319 		"/>
		<polygon fill="#FFFFFF" points="30.332,6.369 30.332,21.228 30.329,21.199 30.329,33.283 30.332,33.319 30.332,50.495 
			44.42,50.495 44.42,6.369 		"/>
	</g>
	<g>
		<path fill="#FFFFFF" d="M89.371,16.795c0.916,0.171,1.722,0.479,2.38,0.956C92.784,18.5,93.5,19.562,93.941,21l0.221,0.711
			l13.543-2.564l-0.23-0.864c-0.755-2.844-1.906-5.233-3.421-7.103c-1.533-1.891-3.486-3.306-5.807-4.206
			C96.169,6.17,93.251,5.74,89.37,5.66L89.371,16.795L89.371,16.795z"/>
		<path fill="#FFFFFF" d="M89.371,24.617v10.498h6.172v2.703c-1.401,0.858-2.66,1.479-3.749,1.846
			c-0.775,0.263-1.588,0.431-2.424,0.519v10.976c3.155-0.136,5.989-0.597,8.403-1.417c2.88-0.979,6.222-2.834,9.929-5.516
			l0.345-0.249v-19.36H89.371z"/>
		<path fill="#FFFFFF" d="M85.371,39.891c-1.379-0.411-2.519-1.168-3.441-2.286c-1.495-1.807-2.253-4.942-2.253-9.318
			c0-4.11,0.751-7.126,2.232-8.964c0.949-1.179,2.098-1.957,3.462-2.359V5.736c-3.494,0.227-6.412,0.91-8.681,2.057
			c-3.615,1.848-6.399,4.593-8.274,8.159c-1.857,3.533-2.799,7.731-2.799,12.48c0,4.51,0.858,8.569,2.555,12.064
			c1.713,3.535,4.168,6.238,7.297,8.034c2.641,1.517,5.97,2.391,9.902,2.621V39.891z"/>
	</g>
	<g>
		<polygon fill="#FFFFFF" points="136.873,6.353 136.873,21.212 136.855,21.194 136.871,33.303 136.873,33.303 136.873,50.479 
			150.961,50.479 150.961,6.353 		"/>
		<polygon fill="#FFFFFF" points="133.371,21.228 125.021,21.228 125.021,6.369 110.987,6.369 110.987,50.495 125.021,50.495 
			125.021,33.319 133.371,33.319 		"/>
	</g>
	<g>
		<path fill="#FFFFFF" d="M22.621,86.407c-1.486-0.327-2.704-1.088-3.685-2.309c-1.374-1.714-2.068-4.646-2.068-8.721
			c0-4.109,0.698-7.062,2.082-8.773c0.994-1.234,2.208-2,3.67-2.32V52.573c-5.897,0.324-10.645,2.322-14.1,5.988
			c-3.772,4.002-5.688,9.642-5.688,16.762c0,5.082,0.963,9.39,2.861,12.801c1.911,3.434,4.448,5.98,7.54,7.576
			c2.562,1.32,5.717,2.09,9.384,2.309V86.407H22.621z"/>
		<path fill="#FFFFFF" d="M40.341,58.457c-3.276-3.449-7.8-5.412-13.47-5.854v11.895c1.17,0.393,2.157,1.072,2.98,2.072
			c1.389,1.684,2.09,4.451,2.09,8.231c0,4.535-0.674,7.685-2.004,9.359c-0.814,1.028-1.831,1.725-3.066,2.103v11.745
			c3.693-0.241,6.891-1.14,9.51-2.694c3.102-1.842,5.507-4.453,7.146-7.762c1.625-3.277,2.449-7.509,2.449-12.576
			C45.976,67.95,44.08,62.392,40.341,58.457z"/>
	</g>
	<g>
		<path fill="#FFFFFF" d="M64.871,86.037c-0.873-0.381-1.614-0.963-2.231-1.765c-1.226-1.586-1.847-4.67-1.847-9.168
			c0-3.621,0.523-6.283,1.564-7.92c0.69-1.105,1.524-1.914,2.514-2.443V52.66c-5.272,0.514-9.521,2.438-12.631,5.771
			c-3.655,3.914-5.51,9.555-5.51,16.762c0,5.396,1.052,9.901,3.121,13.395c2.077,3.504,4.6,5.993,7.492,7.398
			c2.074,1.01,4.6,1.65,7.527,1.933V86.037L64.871,86.037z"/>
		<path fill="#FFFFFF" d="M74.846,78.979c-0.515,2.53-1.339,4.472-2.451,5.765c-0.797,0.928-1.876,1.493-3.273,1.717v11.604
			c3.358-0.074,6.21-0.646,8.467-1.717c2.438-1.156,4.506-2.894,6.146-5.158c1.625-2.246,2.829-5.066,3.578-8.385l0.167-0.744
			l-12.446-3.992L74.846,78.979z"/>
	</g>
	<g>
		<rect x="98.683" y="70.053" fill="#FFFFFF" width="14.034" height="27.304"/>
		<path fill="#FFFFFF" d="M86.068,53.229v10.754c-1.429-3.488-3.395-6.203-5.88-8.066c-2.757-2.066-6.48-3.191-11.065-3.374v11.529
			c0.693,0.104,1.348,0.308,1.938,0.626c0.879,0.476,1.636,1.168,2.254,2.064c0.365,0.521,0.729,1.395,1.085,2.596l0.225,0.754
			l12.557-2.963l-0.267-0.854c-0.101-0.314-0.211-0.611-0.317-0.918h12.087l0.104,0.007h13.958l-0.029-0.007h12.615V53.229H86.068z"
			/>
	</g>
	<g>
		<rect x="224.371" y="53.229" fill="#FFFFFF" width="17.578" height="10.729"/>
		<rect x="224.371" y="69.045" fill="#FFFFFF" width="16.076" height="10.324"/>
		<rect x="207.136" y="53.229" fill="#FFFFFF" width="12.984" height="44.127"/>
		<rect x="224.371" y="86.077" fill="#FFFFFF" width="18.18" height="11.279"/>
	</g>
	<polygon fill="#FFFFFF" points="138.806,74.009 133.739,53.824 118.315,97.356 132.368,97.356 	"/>
	<g>
		<polygon fill="#FFFFFF" points="203.404,88.013 203.404,53.229 190.082,53.229 190.082,67.401 		"/>
		<polygon fill="#FFFFFF" points="190.082,74.692 190.082,74.717 188.001,71.476 181.853,61.963 181.885,61.942 176.295,53.229 
			163.458,53.229 163.458,54.64 178.349,78.521 190.459,97.356 203.404,97.356 203.404,95.304 		"/>
		<polygon fill="#FFFFFF" points="163.458,62.2 163.458,95.123 148.618,53.229 137.664,53.229 143.043,74.664 144.443,79.5 
			141.414,79.5 138.423,90.347 147.489,90.347 149.491,97.356 163.458,97.356 164.249,97.356 176.754,97.356 176.754,83.524 		"/>
	</g>
</g>
<g id="Layer_3" display="none">
	
		<line display="inline" fill="none" stroke="#FFFFFF" stroke-width="4.1233" stroke-miterlimit="10" x1="28.238" y1="8.014" x2="28.238" y2="44.614"/>
	
		<line display="inline" fill="none" stroke="#FFFFFF" stroke-width="4" stroke-miterlimit="10" x1="87.492" y1="-2.57" x2="87.492" y2="52.028"/>
	
		<line display="inline" fill="none" stroke="#FFFFFF" stroke-width="3.4342" stroke-miterlimit="10" x1="135.161" y1="8.515" x2="135.161" y2="45.113"/>
	
		<line display="inline" fill="none" stroke="#FFFFFF" stroke-width="4" stroke-miterlimit="10" x1="24.928" y1="49.895" x2="24.928" y2="104.494"/>
	
		<line display="inline" fill="none" stroke="#FFFFFF" stroke-width="4" stroke-miterlimit="10" x1="67.182" y1="49.895" x2="67.182" y2="104.493"/>
	
		<line display="inline" fill="none" stroke="#FFFFFF" stroke-width="4.733" stroke-miterlimit="10" x1="91.534" y1="67.728" x2="117.789" y2="67.728"/>
	
		<line display="inline" fill="none" stroke="#FFFFFF" stroke-width="4" stroke-miterlimit="10" x1="222.632" y1="49.895" x2="222.632" y2="104.493"/>
</g>
<text transform="matrix(1 0 0 1 -213.3865 67.958)" fill="#FFFFFF" font-family="'Helvetica'" font-size="60">site by</text>
</svg>
